<svg version="1.1" id="Layer_1" xmlns="http://www.w3.org/2000/svg" xmlns:xlink="http://www.w3.org/1999/xlink" x="0px" y="0px"
	 width="100%" viewBox="0 0 360 360" enable-background="new 0 0 360 360" xml:space="preserve">
<path fill="#000000" opacity="1.000000" stroke="none" 
	d="
M247.000000,361.000000 
	C165.025085,361.000000 83.050179,361.000000 1.037632,361.000000 
	C1.037632,241.061813 1.037632,121.123611 1.037632,1.092703 
	C120.901413,1.092703 240.802933,1.092703 360.852234,1.092703 
	C360.852234,120.999870 360.852234,240.999908 360.852234,361.000000 
	C327.249664,361.000000 293.593506,361.000000 259.087524,360.791382 
	C264.929230,353.407959 271.620728,346.233154 278.599182,338.986511 
	C279.178772,338.437378 279.471405,337.960022 279.819336,337.330841 
	C279.874664,337.178986 280.170135,337.048004 280.528839,337.048615 
	C286.342743,335.690948 287.820038,331.154358 289.318268,326.439423 
	C289.384979,326.297699 289.696655,326.266357 289.955688,326.319153 
	C290.464081,326.147156 290.713409,325.922363 291.085632,325.444885 
	C291.367371,325.092957 291.526245,324.993713 291.804138,325.249878 
	C292.910889,326.311310 293.898651,327.017273 294.886383,327.723236 
	C294.544037,326.024353 294.201691,324.325439 294.023376,322.335388 
	C294.993958,321.294739 295.800537,320.545258 296.875549,319.700195 
	C297.325317,319.281708 297.506622,318.958832 297.763184,318.789703 
	C297.838409,318.943481 297.657013,318.653015 298.014557,318.692627 
	C300.890472,316.772736 303.408813,314.813263 306.292725,312.940002 
	C312.093353,314.234589 314.066681,312.905731 313.910034,307.862976 
	C313.855621,306.110474 313.183441,304.377106 312.909302,302.377289 
	C313.451752,301.759216 313.878326,301.398895 314.591553,300.957092 
	C315.185944,300.398956 315.493713,299.922211 315.827026,299.294922 
	C315.852631,299.144348 316.133240,299.023621 316.417419,299.105225 
	C317.469269,299.789032 318.236969,300.391266 319.043396,301.072876 
	C319.082123,301.152252 319.280670,301.168365 319.280670,301.168365 
	C319.280670,301.168365 318.993378,301.004791 319.010254,300.631226 
	C319.419495,298.998291 319.863129,297.752289 320.195312,296.477264 
	C321.582855,291.151825 318.117432,286.363220 313.162506,286.809814 
	C312.991302,286.661163 312.904755,286.216064 312.832550,285.965424 
	C312.514160,285.475281 312.268005,285.235779 311.809296,284.835327 
	C311.540344,284.505829 311.483887,284.337311 311.747864,284.050049 
	C313.986694,283.063202 315.376617,281.912598 312.885712,280.254974 
	C310.986786,278.991333 308.811493,278.142944 306.463928,276.915466 
	C304.095367,273.521149 302.022003,270.321167 299.906311,266.874390 
	C299.626007,266.404602 299.388062,266.181610 298.932495,265.780396 
	C298.455780,265.112396 298.196747,264.622589 297.910248,263.889221 
	C297.750793,263.322296 297.520447,263.101624 297.045959,262.861206 
	C296.900238,262.738800 296.833710,262.364014 296.778656,262.086121 
	C296.452332,261.556091 296.181030,261.303925 295.952850,261.034485 
	C295.995941,261.017151 295.925140,261.077423 295.926331,260.754913 
	C295.644623,259.621490 295.361755,258.810577 295.441223,258.026642 
	C297.608826,258.651917 299.414062,259.250214 302.412903,260.244080 
	C300.050385,255.975037 298.644958,252.810104 296.596741,250.137833 
	C296.025909,249.393051 293.554535,250.104950 291.719788,250.120514 
	C291.484589,250.092422 291.013947,250.037949 290.910461,249.913361 
	C290.489044,249.612228 290.220062,249.682632 289.718445,249.980621 
	C289.061584,249.947571 288.686279,249.933914 288.079224,249.668274 
	C286.528870,247.358368 285.210205,245.300415 283.844940,242.980652 
	C283.551178,242.473312 283.304077,242.227798 282.845276,241.812134 
	C282.386749,241.167923 282.139832,240.693848 281.912109,239.880585 
	C281.323639,237.159485 282.377502,233.503342 277.865967,234.123749 
	C277.926422,234.085846 277.841248,234.200302 277.799072,233.948044 
	C277.519165,233.461365 277.281433,233.226944 277.018677,232.995560 
	C276.993652,232.998596 277.017578,232.954193 277.027679,232.616516 
	C275.088684,228.915894 275.294403,223.949707 269.973145,222.667725 
	C260.182861,207.963577 250.541931,193.576416 240.939972,178.774414 
	C240.505905,176.514908 240.466553,174.382187 239.471634,172.884079 
	C237.238266,169.521164 237.449097,160.366211 240.904678,158.563568 
	C245.553940,156.138275 244.832016,153.934601 242.250168,150.734131 
	C243.238953,148.963547 243.963181,147.401779 245.053009,145.781631 
	C245.886276,144.696060 246.353928,143.668884 246.854645,142.451935 
	C246.887726,142.262177 247.183441,142.015259 247.389954,141.899780 
	C247.844589,141.554916 247.963531,141.271332 247.978455,140.959946 
	C248.003601,140.986313 247.937881,140.955414 248.273026,140.875671 
	C249.028198,139.820114 249.448227,138.844284 249.929382,137.935059 
	C249.990524,138.001633 249.859634,137.875809 250.142914,137.958008 
	C251.250504,138.084808 252.729446,138.352173 252.801407,138.140747 
	C253.953110,134.756378 254.925232,131.310898 255.944916,127.647392 
	C256.078430,127.105042 256.303894,126.906822 256.985962,126.891624 
	C258.581543,126.637489 260.666199,126.620132 260.914673,125.935944 
	C262.200989,122.393921 263.017914,118.681458 263.993500,115.010483 
	C263.988525,114.992554 264.025635,114.995537 264.351746,114.922279 
	C265.111450,113.893112 265.545044,112.937195 266.050201,111.654755 
	C266.596283,110.574654 267.070831,109.821098 267.786713,108.966766 
	C267.734283,107.564041 267.440491,106.262085 267.048401,104.670929 
	C266.932404,103.976273 266.914734,103.570816 266.984802,102.826553 
	C266.788422,101.640976 266.504242,100.794205 266.129486,99.711868 
	C266.035095,99.308098 266.031250,99.139885 266.097961,98.812424 
	C266.186829,98.391769 266.081940,98.196686 265.711609,97.703468 
	C265.448700,96.569908 265.327972,95.800804 265.323792,94.906380 
	C265.291779,94.516411 265.143280,94.251762 264.911316,93.815979 
	C264.827911,93.644859 264.839844,93.264305 264.928040,92.823730 
	C264.000031,87.927528 262.983856,83.471893 261.985107,79.012329 
	C262.002563,79.008408 261.970367,79.029678 262.049316,78.672470 
	C261.787079,77.194557 261.445923,76.073853 260.979858,74.563248 
	C258.127075,60.923733 255.384689,47.677090 252.686234,34.421505 
	C252.253601,32.296307 252.213959,29.960289 248.798691,30.031752 
	C244.678558,30.162334 240.820587,30.530304 236.574417,30.970503 
	C235.135452,31.049049 234.084671,31.055367 232.728500,30.830620 
	C227.264206,30.998833 222.105301,31.398104 216.504303,31.891737 
	C211.060242,32.187202 206.058273,32.388309 200.947601,32.439835 
	C200.537949,32.404110 200.237030,32.517971 199.627045,32.690498 
	C198.900024,32.733868 198.482056,32.718575 197.881638,32.531075 
	C197.110657,32.516174 196.522110,32.673477 195.491394,32.899555 
	C191.815704,33.056519 188.582214,33.144703 184.871155,33.110271 
	C179.593231,33.308395 174.792862,33.629131 169.629044,34.028511 
	C168.526169,34.126343 167.786743,34.145527 166.757095,33.929501 
	C162.295792,34.081459 158.124725,34.468628 153.506775,34.933121 
	C147.994553,35.364964 141.953583,33.688812 140.036743,40.953514 
	C138.809616,40.632885 137.112106,40.165478 136.995270,40.420952 
	C136.061905,42.461887 135.427750,44.639668 134.316803,47.908813 
	C136.841888,46.861187 137.874405,46.432812 138.901978,46.377151 
	C137.598267,50.840515 136.299530,54.931164 134.711685,59.234024 
	C134.087677,59.808186 133.597519,60.112991 133.440216,60.540310 
	C127.419876,76.895790 121.352112,93.234673 115.491386,109.647446 
	C114.041176,113.708717 113.813805,117.788811 116.703949,121.755478 
	C118.918900,124.795471 120.346352,128.409241 122.146317,132.006470 
	C122.270607,132.564941 122.465904,132.810623 122.952171,133.182114 
	C123.210106,133.559540 123.270348,133.737030 122.960487,133.989807 
	C121.859467,135.448318 121.128555,136.831573 120.397636,138.214828 
	C122.620743,139.128342 124.843857,140.041870 127.032326,140.966919 
	C126.997681,140.978439 127.047295,140.924820 127.089981,141.148178 
	C127.263245,141.662445 127.474503,141.872025 127.975288,142.299988 
	C131.330215,148.696609 133.967880,155.137924 137.788513,160.777878 
	C140.675598,165.039734 140.746521,168.010025 137.719147,172.051849 
	C123.811966,190.619202 110.130890,209.355911 96.269188,227.647766 
	C92.733109,224.628128 91.531723,225.159164 88.855309,230.496826 
	C83.815819,228.733307 81.644379,230.188660 81.776337,235.636948 
	C83.294968,234.847336 84.668564,234.133133 86.756454,233.047546 
	C87.234337,235.316299 87.618431,237.139755 87.776001,239.156769 
	C87.038231,239.860596 86.526985,240.370880 86.010857,240.564697 
	C85.906235,239.501251 85.806496,238.754242 85.683395,237.832214 
	C83.158417,239.961044 83.158417,239.961044 84.997513,242.356567 
	C83.620842,244.803726 82.205589,246.900665 80.605728,249.155579 
	C80.189003,249.557602 80.051476,249.846619 79.988617,250.382126 
	C79.868835,250.855240 79.683380,251.041885 79.026611,251.145538 
	C76.784225,252.160233 74.844955,253.048340 73.089241,254.213104 
	C70.032593,256.240997 71.191536,257.513123 73.944336,258.556946 
	C73.882027,258.784943 73.515953,259.084045 73.167984,259.146790 
	C69.197510,259.273163 66.692924,260.454620 66.445702,264.665100 
	C66.325333,266.715027 65.486832,268.722839 64.712280,270.871704 
	C64.270630,271.316254 64.090118,271.638824 63.662525,272.148193 
	C62.660698,272.999695 61.905960,273.664459 60.957424,274.053223 
	C59.798916,273.011627 58.834209,272.246002 58.136543,271.692291 
	C55.702892,275.106262 53.312920,278.098816 51.440086,281.386047 
	C51.059395,282.054199 52.627151,283.832458 53.216976,285.443298 
	C51.648365,287.811340 50.159454,289.835052 48.502945,291.488220 
	C46.948666,288.996033 45.529636,287.956848 43.660728,291.077637 
	C39.118668,294.810181 35.593506,298.769104 36.650452,304.994049 
	C35.465530,305.215088 34.617149,305.428650 33.768768,305.642212 
	C33.948166,306.052460 34.127567,306.462677 34.306965,306.872925 
	C35.208424,306.252930 36.109879,305.632965 37.343857,305.045929 
	C37.898067,305.100769 38.119755,305.122681 38.536236,305.425964 
	C41.298248,306.788483 43.772217,308.287079 46.447445,308.884521 
	C67.607040,313.610229 88.804970,318.164246 110.391663,322.874695 
	C116.775459,324.226471 122.758713,325.474579 128.445847,326.660919 
	C133.734695,318.118011 138.859421,309.928650 143.888000,301.680634 
	C146.422714,297.523102 148.783066,293.259277 151.504486,288.881104 
	C152.534454,287.214111 153.282211,285.709503 154.361298,284.039764 
	C163.480911,269.625854 172.269196,255.377075 181.429810,241.100342 
	C185.258850,246.922089 188.715546,252.771820 192.124512,259.054352 
	C192.394699,263.137329 191.147675,267.751312 197.136017,267.891632 
	C197.043381,267.931183 197.211395,267.820007 197.086594,268.173431 
	C196.360916,269.982880 195.760040,271.438934 194.856598,273.628143 
	C200.184937,273.335846 200.595535,276.633301 200.624222,280.146545 
	C200.666168,285.281494 203.728638,287.331543 208.589355,288.098206 
	C211.192108,291.955231 213.554230,295.558929 215.958191,299.503357 
	C216.583466,301.253784 217.166916,302.663483 217.573654,304.328949 
	C218.477859,306.416992 219.558746,308.249237 220.848633,310.375977 
	C224.056488,316.415588 226.920776,322.236023 230.084320,327.889008 
	C235.413330,337.411499 240.932236,346.827667 246.618469,356.553223 
	C246.910431,358.211914 246.955215,359.605957 247.000000,361.000000 
M258.735840,200.728989 
	C260.281647,202.811996 261.827454,204.895004 264.055389,207.897202 
	C265.864044,201.397659 262.706879,200.741638 258.735840,200.728989 
M65.626907,257.790649 
	C65.787285,257.985229 65.947662,258.179840 66.108040,258.374420 
	C66.212219,258.277832 66.316406,258.181244 66.420586,258.084656 
	C66.236923,257.911346 66.053261,257.738037 65.626907,257.790649 
M301.827484,266.484009 
	C301.827484,266.484009 302.113800,266.573151 302.113800,266.573151 
	C302.113800,266.573151 301.933563,266.371796 301.827484,266.484009 
M303.524414,264.501801 
	C303.524414,264.501801 303.489594,264.514923 303.524414,264.501801 
z"/>
<path fill="#F9DF1D" opacity="1.000000" stroke="none" 
	d="
M154.029968,284.204926 
	C153.282211,285.709503 152.534454,287.214111 151.129990,288.877716 
	C149.388641,289.909027 147.965973,290.571289 147.272644,291.686829 
	C141.561783,300.875275 135.865555,310.077972 130.446564,319.439392 
	C128.908386,322.096649 127.244980,323.503204 124.194077,323.036499 
	C119.472458,322.314240 114.750427,321.594666 109.746887,320.658203 
	C102.466873,318.665009 95.512901,316.683044 88.460770,315.153656 
	C74.700523,312.169464 60.881199,309.458252 47.101246,306.563019 
	C46.056755,306.343567 45.130516,305.561279 43.583237,304.740295 
	C47.446537,299.183380 51.037289,293.915009 54.740376,288.726776 
	C57.408310,284.988892 60.225891,281.357819 63.183723,277.555359 
	C63.513096,276.982605 63.635460,276.533539 63.842148,275.758331 
	C64.282013,274.608368 64.637558,273.784546 65.345306,272.886047 
	C66.418732,271.453766 67.139946,270.096252 67.960785,268.432312 
	C69.064468,266.746094 70.068527,265.366302 71.376839,263.864990 
	C75.052986,259.782593 78.424873,255.821732 82.082993,252.024353 
	C83.252869,252.799194 84.136536,253.410583 85.037567,254.366638 
	C85.617203,255.370880 86.196762,256.612396 86.738983,256.596283 
	C90.471634,256.485474 95.234482,248.709717 94.054276,244.635040 
	C93.722374,241.816772 93.329002,239.350433 93.100769,236.597137 
	C99.480568,228.191101 105.793076,220.144714 111.887474,211.936386 
	C121.632141,198.811661 131.376083,185.680313 140.750671,172.292923 
	C142.305115,170.073105 143.249115,166.003922 142.285645,163.708328 
	C139.346039,156.704483 135.412155,150.108047 131.725327,143.430267 
	C127.159119,135.159714 122.314888,127.038971 117.923355,118.678802 
	C117.045662,117.007935 117.073059,114.354172 117.694115,112.490517 
	C120.517456,104.018250 123.755020,95.685165 126.742401,87.266113 
	C129.842819,78.528496 132.826950,69.749619 136.048935,60.686077 
	C138.672760,54.213905 140.860275,47.926830 143.684555,41.940155 
	C144.645096,39.904083 147.133179,37.311958 149.053238,37.199856 
	C171.920013,35.864708 194.812988,34.985256 217.695435,33.908276 
	C226.974045,33.471569 236.251450,32.947960 245.513565,32.252785 
	C249.147964,31.980009 250.461136,33.450695 251.081741,36.897236 
	C253.303833,49.237530 255.789551,61.530792 258.225006,73.832054 
	C259.799408,81.783981 261.731201,89.676422 262.982269,97.676918 
	C263.758423,102.640450 263.560669,107.756287 263.484741,112.921928 
	C262.208099,113.915588 260.979309,114.627129 260.326721,115.691826 
	C253.524750,126.789619 246.815338,137.944153 239.842850,148.828812 
	C238.539490,145.983902 237.160599,144.074203 233.767548,145.793777 
	C229.212418,146.103058 225.770676,150.972061 225.985901,156.020874 
	C228.582870,154.055817 231.270782,152.021957 234.309906,150.046539 
	C235.808350,150.415390 236.955566,150.725784 238.035980,151.387787 
	C235.962799,155.082291 234.060638,158.493805 231.918518,161.747330 
	C230.063385,164.564972 229.323395,167.069534 232.777557,169.618011 
	C233.272781,171.630188 233.664520,173.294464 233.707855,174.908051 
	C231.601761,173.626480 229.844070,172.395584 228.086365,171.164703 
	C227.669281,171.504013 227.252182,171.843338 226.835083,172.182663 
	C228.029434,173.920380 229.114807,175.763321 230.559296,177.259583 
	C230.735260,177.441849 232.841721,175.760437 234.351990,175.017517 
	C235.102829,175.721115 235.555176,176.349945 235.802094,177.222641 
	C236.405457,178.307831 237.214233,179.149139 238.309631,180.161530 
	C239.420639,181.883484 240.245041,183.434372 240.647095,184.989014 
	C238.903015,185.067902 237.408707,184.784302 236.305969,185.314743 
	C235.100937,185.894379 234.107132,187.126907 233.338211,188.285248 
	C233.063400,188.699219 233.786606,190.388931 233.931824,190.373108 
	C235.298752,190.224121 236.650055,189.871017 237.984467,189.499878 
	C239.688248,189.026062 241.372223,188.481018 243.349121,188.148010 
	C248.735565,195.642990 253.738556,203.028473 258.974731,210.244766 
	C262.416168,214.987640 266.194061,219.486404 269.922272,224.437714 
	C271.730469,227.434647 273.437683,230.088364 275.117371,233.119766 
	C276.354095,235.782196 277.481781,238.157211 278.917542,240.328522 
	C280.653992,242.954559 282.776031,245.325500 284.514679,247.950256 
	C293.565399,261.613617 302.414948,275.412231 311.610748,288.976532 
	C315.983765,295.426941 316.081757,295.074890 310.971313,300.706451 
	C306.327240,305.824066 302.132843,311.349823 297.408630,316.795776 
	C293.243347,320.368408 289.357269,323.786530 285.634003,327.373627 
	C285.090759,327.897034 285.324463,329.226868 285.192657,330.165375 
	C285.186646,330.147186 285.189514,330.166321 284.886963,330.060852 
	C284.380951,329.890320 284.177521,329.825256 283.909485,329.443390 
	C283.022064,326.233093 281.302216,325.472137 279.580139,328.101074 
	C278.264069,330.110199 277.867371,332.721527 277.031464,335.032471 
	C277.001221,335.000000 277.066284,335.060669 276.697693,335.059937 
	C273.640900,335.726746 270.934265,336.382660 273.031128,340.459473 
	C267.707275,346.156372 262.425415,351.479706 257.283752,356.935181 
	C256.249359,358.032684 255.747406,359.632019 255.000000,361.000000 
	C252.629440,361.000000 250.258896,361.000000 247.444168,361.000000 
	C246.955215,359.605957 246.910431,358.211914 246.903992,356.345947 
	C246.236084,352.946198 246.096252,349.715973 244.723053,347.144287 
	C239.490570,337.345001 234.011017,327.667908 228.306244,318.135193 
	C225.937012,314.176178 222.769257,310.695007 219.871506,306.690674 
	C219.102371,305.614227 218.426361,304.843719 217.750351,304.073181 
	C217.166916,302.663483 216.583466,301.253784 215.954742,299.113342 
	C213.171387,292.751343 210.623047,287.018005 207.657959,281.508972 
	C200.228683,267.705719 192.616837,254.000656 185.064545,240.263733 
	C182.793610,236.133163 181.590363,236.078506 178.882233,240.159149 
	C171.409607,251.952225 164.024506,263.411896 157.139587,275.164551 
	C155.606613,277.781342 151.555176,280.036041 154.029968,284.204926 
M213.598984,77.797874 
	C200.484375,78.185104 187.369751,78.572327 173.321533,78.987122 
	C179.853210,89.124298 185.665756,98.145393 191.514328,107.222397 
	C194.822464,103.692230 197.469254,100.867798 200.788666,97.920799 
	C201.359985,97.608711 202.104599,97.433632 202.476166,96.963631 
	C206.846344,91.436043 211.180923,85.879524 215.416168,80.248856 
	C215.587463,80.021111 214.681244,78.982880 213.598984,77.797874 
z"/>
<path fill="#DBCE4E" opacity="1.000000" stroke="none" 
	d="
M255.399994,361.000000 
	C255.747406,359.632019 256.249359,358.032684 257.283752,356.935181 
	C262.425415,351.479706 267.707275,346.156372 273.350067,340.353088 
	C274.862305,338.299988 275.964294,336.680328 277.066284,335.060669 
	C277.066284,335.060669 277.001221,335.000000 277.375244,334.983795 
	C279.226898,334.380493 280.704559,333.793396 282.177032,333.528442 
	C281.504639,334.916382 280.837402,335.982208 280.170135,337.048004 
	C280.170135,337.048004 279.874664,337.178986 279.557587,337.438232 
	C278.931061,338.151093 278.621613,338.604706 278.312195,339.058319 
	C271.620728,346.233154 264.929230,353.407959 258.618896,360.791382 
	C257.933319,361.000000 256.866669,361.000000 255.399994,361.000000 
z"/>
<path fill="#D0C247" opacity="1.000000" stroke="none" 
	d="
M81.796768,251.860886 
	C78.424873,255.821732 75.052986,259.782593 71.306999,263.510010 
	C71.793922,261.879059 72.654945,260.481567 73.515961,259.084045 
	C73.515953,259.084045 73.882027,258.784943 74.208603,258.416809 
	C76.160904,255.746918 77.786629,253.445206 79.412354,251.143494 
	C79.683380,251.041885 79.868835,250.855240 80.241760,250.285080 
	C80.606651,249.656906 80.698502,249.327255 80.790344,248.997589 
	C82.205589,246.900665 83.620842,244.803726 85.091553,242.103577 
	C85.436584,241.293945 85.726166,241.087540 86.015739,240.881149 
	C86.526985,240.370880 87.038231,239.860596 88.106674,239.082275 
	C91.232132,235.220093 93.800400,231.625961 96.368668,228.031830 
	C110.130890,209.355911 123.811966,190.619202 137.719147,172.051849 
	C140.746521,168.010025 140.675598,165.039734 137.788513,160.777878 
	C133.967880,155.137924 131.330215,148.696609 127.963211,142.061340 
	C127.627975,141.187256 127.396309,140.987869 127.047295,140.924820 
	C127.047295,140.924820 126.997681,140.978439 127.006851,140.620407 
	C125.787552,138.146423 124.559074,136.030487 123.330589,133.914536 
	C123.270348,133.737030 123.210106,133.559540 122.958778,132.931473 
	C122.553146,132.243210 122.338600,132.005508 122.124062,131.767807 
	C120.346352,128.409241 118.918900,124.795471 116.703949,121.755478 
	C113.813805,117.788811 114.041176,113.708717 115.491386,109.647446 
	C121.352112,93.234673 127.419876,76.895790 133.440216,60.540310 
	C133.597519,60.112991 134.087677,59.808186 134.764938,59.504189 
	C135.358841,60.037689 135.610397,60.513241 135.861954,60.988792 
	C132.826950,69.749619 129.842819,78.528496 126.742401,87.266113 
	C123.755020,95.685165 120.517456,104.018250 117.694115,112.490517 
	C117.073059,114.354172 117.045662,117.007935 117.923355,118.678802 
	C122.314888,127.038971 127.159119,135.159714 131.725327,143.430267 
	C135.412155,150.108047 139.346039,156.704483 142.285645,163.708328 
	C143.249115,166.003922 142.305115,170.073105 140.750671,172.292923 
	C131.376083,185.680313 121.632141,198.811661 111.887474,211.936386 
	C105.793076,220.144714 99.480568,228.191101 92.860245,236.836792 
	C88.901970,242.195908 85.349365,247.028397 81.796768,251.860886 
z"/>
<path fill="#D8CA4C" opacity="1.000000" stroke="none" 
	d="
M136.048935,60.686081 
	C135.610397,60.513241 135.358841,60.037689 135.054031,59.291973 
	C136.299530,54.931164 137.598267,50.840515 138.993881,46.023224 
	C139.493423,43.911610 139.896088,42.526646 140.298767,41.141682 
	C141.953583,33.688812 147.994553,35.364964 153.964050,35.011276 
	C158.927933,34.729637 162.987640,34.447174 167.047333,34.164711 
	C167.786743,34.145527 168.526169,34.126343 170.082092,34.145264 
	C175.715302,33.866543 180.531998,33.549713 185.348709,33.232887 
	C188.582214,33.144703 191.815704,33.056519 195.847397,32.999474 
	C197.118423,32.921497 197.591248,32.812389 198.064087,32.703278 
	C198.482056,32.718575 198.900024,32.733868 199.911163,32.782715 
	C200.688324,32.740646 200.872314,32.665031 201.056320,32.589417 
	C206.058273,32.388309 211.060242,32.187202 216.966385,31.987385 
	C222.925018,31.679676 227.979462,31.370680 233.033905,31.061684 
	C234.084671,31.055367 235.135452,31.049049 237.021957,31.076492 
	C241.592087,30.829882 245.326462,30.549509 249.060852,30.269136 
	C252.213959,29.960289 252.253601,32.296307 252.686234,34.421505 
	C255.384689,47.677090 258.127075,60.923733 260.918457,74.918365 
	C261.311462,76.785484 261.640900,77.907585 261.970367,79.029678 
	C261.970367,79.029678 262.002563,79.008408 261.926239,79.428818 
	C262.846558,84.320923 263.843201,88.792618 264.839844,93.264305 
	C264.839844,93.264305 264.827911,93.644859 264.871887,94.096054 
	C265.013000,94.708733 265.110138,94.870216 265.207245,95.031700 
	C265.327972,95.800804 265.448700,96.569908 265.601959,97.859619 
	C265.609497,98.680962 265.740479,98.878113 266.027435,98.971680 
	C266.031250,99.139885 266.035095,99.308098 266.059326,100.047226 
	C266.352173,101.467209 266.624603,102.316284 266.897034,103.165359 
	C266.914734,103.570816 266.932404,103.976273 266.998901,105.084717 
	C267.213593,106.880981 267.379486,107.974251 267.545349,109.067535 
	C267.070831,109.821098 266.596283,110.574654 265.822205,111.787537 
	C265.136627,112.599487 264.750519,112.952103 264.222656,113.180260 
	C264.080872,113.055801 263.800079,112.803757 263.800079,112.803757 
	C263.560669,107.756287 263.758423,102.640450 262.982269,97.676918 
	C261.731201,89.676422 259.799408,81.783981 258.225006,73.832054 
	C255.789551,61.530792 253.303833,49.237530 251.081741,36.897236 
	C250.461136,33.450695 249.147964,31.980009 245.513565,32.252785 
	C236.251450,32.947960 226.974045,33.471569 217.695435,33.908276 
	C194.812988,34.985256 171.920013,35.864708 149.053238,37.199856 
	C147.133179,37.311958 144.645096,39.904083 143.684555,41.940155 
	C140.860275,47.926830 138.672760,54.213905 136.048935,60.686081 
z"/>
<path fill="#D0C349" opacity="1.000000" stroke="none" 
	d="
M62.976715,277.679077 
	C60.225891,281.357819 57.408310,284.988892 54.740376,288.726776 
	C51.037289,293.915009 47.446537,299.183380 43.583237,304.740295 
	C45.130516,305.561279 46.056755,306.343567 47.101246,306.563019 
	C60.881199,309.458252 74.700523,312.169464 88.460770,315.153656 
	C95.512901,316.683044 102.466873,318.665009 109.743042,320.975372 
	C110.010956,321.929230 110.001038,322.350128 109.991119,322.771057 
	C88.804970,318.164246 67.607040,313.610229 46.447445,308.884521 
	C43.772217,308.287079 41.298248,306.788483 38.863750,305.324982 
	C40.696701,302.415497 42.396931,299.888458 44.391800,297.243073 
	C44.916759,296.779053 45.147072,296.433350 45.659576,295.958282 
	C46.397476,294.935089 46.853188,294.041229 47.551659,293.108307 
	C48.074181,292.676666 48.353943,292.284088 48.645550,291.886047 
	C48.657394,291.880524 48.670551,291.858765 48.670547,291.858765 
	C50.159454,289.835052 51.648365,287.811340 53.534210,285.329193 
	C56.337837,281.356873 58.744534,277.843048 61.151222,274.329193 
	C61.905960,273.664459 62.660698,272.999695 63.866089,272.289001 
	C64.571350,272.454773 64.796806,272.694031 64.993103,272.960754 
	C64.637558,273.784546 64.282013,274.608368 63.689957,275.924561 
	C63.294533,276.837646 63.135624,277.258362 62.976715,277.679077 
z"/>
<path fill="#DBCE4E" opacity="1.000000" stroke="none" 
	d="
M297.740234,316.695648 
	C302.132843,311.349823 306.327240,305.824066 310.971313,300.706451 
	C316.081757,295.074890 315.983765,295.426941 311.610748,288.976532 
	C302.414948,275.412231 293.565399,261.613617 284.514679,247.950256 
	C282.776031,245.325500 280.653992,242.954559 278.917542,240.328522 
	C277.481781,238.157211 276.354095,235.782196 275.430573,233.143463 
	C276.186676,232.844391 276.602142,232.899292 277.017578,232.954193 
	C277.017578,232.954193 276.993652,232.998596 277.034729,233.262238 
	C277.330963,233.750702 277.586090,233.975510 277.841248,234.200302 
	C277.841248,234.200302 277.926422,234.085846 277.931763,234.454910 
	C279.255676,236.622574 280.574310,238.421173 281.892944,240.219772 
	C282.139832,240.693848 282.386749,241.167923 282.861694,242.088013 
	C283.357025,242.770187 283.624298,243.006332 283.891571,243.242462 
	C285.210205,245.300415 286.528870,247.358368 288.153198,249.993195 
	C290.947662,254.072540 293.436401,257.574982 295.925140,261.077423 
	C295.925140,261.077423 295.995941,261.017151 295.989380,261.322266 
	C296.266418,261.872955 296.550079,262.118469 296.833710,262.364014 
	C296.833710,262.364014 296.900238,262.738800 297.049927,263.118591 
	C297.445618,263.709839 297.691681,263.921295 297.937714,264.132782 
	C298.196747,264.622589 298.455780,265.112396 298.942566,266.041870 
	C299.429779,266.694733 299.689240,266.907990 299.948669,267.121216 
	C302.022003,270.321167 304.095367,273.521149 306.531677,277.250549 
	C308.405579,279.909576 309.916504,282.039185 311.427429,284.168793 
	C311.483887,284.337311 311.540344,284.505829 311.840881,285.107971 
	C312.358246,285.766418 312.631500,285.991241 312.904755,286.216064 
	C312.904755,286.216064 312.991302,286.661163 313.227905,287.137024 
	C314.417664,289.108582 315.148956,290.824829 316.370392,292.053955 
	C318.890808,294.590179 318.269135,296.772858 316.133240,299.023621 
	C316.133240,299.023621 315.852631,299.144348 315.572906,299.422485 
	C314.963745,300.146576 314.634308,300.592560 314.304871,301.038544 
	C313.878326,301.398895 313.451752,301.759216 312.603058,302.509491 
	C310.090485,305.193634 308.000031,307.487854 305.607971,309.934631 
	C302.928894,312.443481 300.551422,314.799744 298.064026,317.042358 
	C297.954041,316.928711 297.740234,316.695648 297.740234,316.695648 
z"/>
<path fill="#D8C94A" opacity="1.000000" stroke="none" 
	d="
M179.150208,239.931412 
	C181.590363,236.078506 182.793610,236.133163 185.064545,240.263733 
	C192.616837,254.000656 200.228683,267.705719 207.657959,281.508972 
	C210.623047,287.018005 213.171387,292.751343 215.912903,298.772583 
	C213.554230,295.558929 211.192108,291.955231 208.526566,287.741974 
	C204.552567,280.694946 200.881973,274.257477 197.211395,267.820007 
	C197.211395,267.820007 197.043381,267.931183 197.102539,267.537170 
	C195.498550,264.302612 193.835403,261.462067 192.172241,258.621552 
	C188.715546,252.771820 185.258850,246.922089 181.247894,240.872528 
	C180.179184,240.425583 179.664688,240.178497 179.150208,239.931412 
z"/>
<path fill="#CCC045" opacity="1.000000" stroke="none" 
	d="
M219.964630,306.996552 
	C222.769257,310.695007 225.937012,314.176178 228.306244,318.135193 
	C234.011017,327.667908 239.490570,337.345001 244.723053,347.144287 
	C246.096252,349.715973 246.236084,352.946198 246.656799,356.081299 
	C240.932236,346.827667 235.413330,337.411499 230.084320,327.889008 
	C226.920776,322.236023 224.056488,316.415588 220.799194,310.055542 
	C220.348694,308.625916 220.156662,307.811249 219.964630,306.996552 
z"/>
<path fill="#D8CA4C" opacity="1.000000" stroke="none" 
	d="
M240.080246,149.082932 
	C246.815338,137.944153 253.524750,126.789619 260.326721,115.691826 
	C260.979309,114.627129 262.208099,113.915588 263.484741,112.921928 
	C263.800079,112.803757 264.080872,113.055801 264.174316,113.465599 
	C264.187073,114.248779 264.106354,114.622154 264.025635,114.995529 
	C264.025635,114.995537 263.988525,114.992554 263.690033,115.164177 
	C261.137024,119.164131 258.882507,122.992462 256.627991,126.820786 
	C256.303894,126.906822 256.078430,127.105042 255.714600,127.895599 
	C253.604965,131.542419 251.732315,134.709122 249.859650,137.875824 
	C249.859634,137.875809 249.990524,138.001633 249.650116,138.083252 
	C248.852432,139.095032 248.395157,140.025223 247.937881,140.955414 
	C247.937881,140.955414 248.003601,140.986313 247.749084,141.054413 
	C247.200485,141.353745 247.096786,141.651321 247.183441,142.015259 
	C247.183441,142.015259 246.887726,142.262177 246.585144,142.636871 
	C245.750839,143.954391 245.219131,144.897202 244.687408,145.840012 
	C243.963181,147.401779 243.238953,148.963547 241.912720,150.811493 
	C238.707535,155.242798 235.922394,159.289825 233.605469,163.589203 
	C232.851242,164.988754 233.319489,167.047104 233.090759,168.921600 
	C232.952927,169.039032 232.674072,169.270126 232.674072,169.270126 
	C229.323395,167.069534 230.063385,164.564972 231.918518,161.747330 
	C234.060638,158.493805 235.962799,155.082291 238.281479,151.249344 
	C239.089264,150.200500 239.584747,149.641708 240.080246,149.082932 
z"/>
<path fill="#D5C758" opacity="1.000000" stroke="none" 
	d="
M110.391663,322.874695 
	C110.001038,322.350128 110.010956,321.929230 110.024719,321.191101 
	C114.750427,321.594666 119.472458,322.314240 124.194077,323.036499 
	C127.244980,323.503204 128.908386,322.096649 130.446564,319.439392 
	C135.865555,310.077972 141.561783,300.875275 147.272644,291.686829 
	C147.965973,290.571289 149.388641,289.909027 150.847778,289.040100 
	C148.783066,293.259277 146.422714,297.523102 143.888000,301.680634 
	C138.859421,309.928650 133.734695,318.118011 128.445847,326.660919 
	C122.758713,325.474579 116.775459,324.226471 110.391663,322.874695 
z"/>
<path fill="#D8CA4C" opacity="1.000000" stroke="none" 
	d="
M269.821289,224.094482 
	C266.194061,219.486404 262.416168,214.987640 258.974731,210.244766 
	C253.738556,203.028473 248.735565,195.642990 243.220398,187.872986 
	C242.227982,186.606140 241.648712,185.795715 241.069443,184.985275 
	C240.245041,183.434372 239.420639,181.883484 238.181213,179.883484 
	C237.179977,178.615845 236.593750,177.797302 236.007523,176.978760 
	C235.555176,176.349945 235.102829,175.721115 234.323883,175.041992 
	C233.997299,174.991669 234.056259,174.958740 234.056259,174.958740 
	C233.664520,173.294464 233.272781,171.630188 232.777557,169.618011 
	C232.674072,169.270126 232.952927,169.039032 233.362518,169.117874 
	C236.148407,172.527557 238.524704,175.858398 240.901001,179.189240 
	C250.541931,193.576416 260.182861,207.963577 269.880890,222.940521 
	C269.899078,223.718338 269.860199,223.906418 269.821289,224.094482 
z"/>
<path fill="#E1D053" opacity="1.000000" stroke="none" 
	d="
M178.882233,240.159149 
	C179.664688,240.178497 180.179184,240.425583 180.875580,240.900497 
	C172.269196,255.377075 163.480911,269.625854 154.361298,284.039764 
	C151.555176,280.036041 155.606613,277.781342 157.139587,275.164551 
	C164.024506,263.411896 171.409607,251.952225 178.882233,240.159149 
z"/>
<path fill="#1B1407" opacity="1.000000" stroke="none" 
	d="
M240.939972,178.774414 
	C238.524704,175.858398 236.148407,172.527557 233.500366,169.000427 
	C233.319489,167.047104 232.851242,164.988754 233.605469,163.589203 
	C235.922394,159.289825 238.707535,155.242798 241.648163,151.020325 
	C244.832016,153.934601 245.553940,156.138275 240.904678,158.563568 
	C237.449097,160.366211 237.238266,169.521164 239.471634,172.884079 
	C240.466553,174.382187 240.505905,176.514908 240.939972,178.774414 
z"/>
<path fill="#0B0807" opacity="1.000000" stroke="none" 
	d="
M96.269188,227.647766 
	C93.800400,231.625961 91.232132,235.220093 88.333191,238.888702 
	C87.618431,237.139755 87.234337,235.316299 86.756454,233.047546 
	C84.668564,234.133133 83.294968,234.847336 81.776337,235.636948 
	C81.644379,230.188660 83.815819,228.733307 88.855309,230.496826 
	C91.531723,225.159164 92.733109,224.628128 96.269188,227.647766 
z"/>
<path fill="#171007" opacity="1.000000" stroke="none" 
	d="
M197.086594,268.173431 
	C200.881973,274.257477 204.552567,280.694946 208.285950,287.488647 
	C203.728638,287.331543 200.666168,285.281494 200.624222,280.146545 
	C200.595535,276.633301 200.184937,273.335846 194.856598,273.628143 
	C195.760040,271.438934 196.360916,269.982880 197.086594,268.173431 
z"/>
<path fill="#06030B" opacity="1.000000" stroke="none" 
	d="
M47.308899,293.147400 
	C46.853188,294.041229 46.397476,294.935089 45.398491,296.119080 
	C44.602531,296.726624 44.349842,297.044006 44.097157,297.361389 
	C42.396931,299.888458 40.696701,302.415497 38.668957,305.043579 
	C38.119755,305.122681 37.898067,305.100769 37.338020,305.039276 
	C36.999668,304.999664 36.986996,304.986572 36.986996,304.986572 
	C35.593506,298.769104 39.118668,294.810181 43.667248,291.084503 
	C44.001984,291.001495 44.014198,291.012207 44.126572,291.349396 
	C45.262264,292.173523 46.285580,292.660461 47.308899,293.147400 
z"/>
<path fill="#171007" opacity="1.000000" stroke="none" 
	d="
M305.909607,309.782074 
	C308.000031,307.487854 310.090485,305.193634 312.487183,302.767212 
	C313.183441,304.377106 313.855621,306.110474 313.910034,307.862976 
	C314.066681,312.905731 312.093353,314.234589 306.302887,312.559204 
	C305.934845,311.322144 305.922211,310.552124 305.909607,309.782074 
z"/>
<path fill="#06030B" opacity="1.000000" stroke="none" 
	d="
M60.957428,274.053223 
	C58.744534,277.843048 56.337837,281.356873 53.613907,284.984863 
	C52.627151,283.832458 51.059395,282.054199 51.440086,281.386047 
	C53.312920,278.098816 55.702892,275.106262 58.136543,271.692291 
	C58.834209,272.246002 59.798916,273.011627 60.957428,274.053223 
z"/>
<path fill="#06030B" opacity="1.000000" stroke="none" 
	d="
M291.955017,250.148590 
	C293.554535,250.104950 296.025909,249.393051 296.596741,250.137833 
	C298.644958,252.810104 300.050385,255.975037 302.412903,260.244080 
	C299.414062,259.250214 297.608826,258.651917 295.390564,257.662750 
	C293.970032,254.897446 292.962524,252.523010 291.955017,250.148590 
z"/>
<path fill="#171007" opacity="1.000000" stroke="none" 
	d="
M316.417419,299.105225 
	C318.269135,296.772858 318.890808,294.590179 316.370392,292.053955 
	C315.148956,290.824829 314.417664,289.108582 313.399109,287.285645 
	C318.117432,286.363220 321.582855,291.151825 320.195312,296.477264 
	C319.863129,297.752289 319.419495,298.998291 319.013550,300.628815 
	C319.000000,301.000000 319.004639,300.993500 319.004639,300.993500 
	C318.236969,300.391266 317.469269,299.789032 316.417419,299.105225 
z"/>
<path fill="#DBCE4E" opacity="1.000000" stroke="none" 
	d="
M285.198669,330.183563 
	C285.324463,329.226868 285.090759,327.897034 285.634003,327.373627 
	C289.357269,323.786530 293.243347,320.368408 297.408630,316.795776 
	C297.740234,316.695648 297.954041,316.928711 297.993408,317.299255 
	C297.907532,317.997498 297.782257,318.325256 297.657013,318.653015 
	C297.657013,318.653015 297.838409,318.943481 297.504761,318.897583 
	C296.983093,319.166412 296.795105,319.481079 296.607117,319.795776 
	C295.800537,320.545258 294.993958,321.294739 293.794617,322.387817 
	C292.829590,323.452423 292.257355,324.173431 291.685120,324.894440 
	C291.526245,324.993713 291.367371,325.092957 290.853577,325.488129 
	C290.194794,325.884125 289.927460,326.044891 289.696655,326.266357 
	C289.696655,326.266357 289.384979,326.297699 289.079468,326.618744 
	C287.582214,328.021057 286.390442,329.102325 285.198669,330.183563 
z"/>
<path fill="#171007" opacity="1.000000" stroke="none" 
	d="
M73.167984,259.146790 
	C72.654945,260.481567 71.793922,261.879059 71.002747,263.631531 
	C70.068527,265.366302 69.064468,266.746094 67.671234,268.531860 
	C66.512505,269.541779 65.742958,270.145721 64.973419,270.749695 
	C65.486832,268.722839 66.325333,266.715027 66.445702,264.665100 
	C66.692924,260.454620 69.197510,259.273163 73.167984,259.146790 
z"/>
<path fill="#1B1407" opacity="1.000000" stroke="none" 
	d="
M122.960487,133.989807 
	C124.559074,136.030487 125.787552,138.146423 127.041504,140.608887 
	C124.843857,140.041870 122.620743,139.128342 120.397636,138.214828 
	C121.128555,136.831573 121.859467,135.448318 122.960487,133.989807 
z"/>
<path fill="#231C06" opacity="1.000000" stroke="none" 
	d="
M256.985962,126.891617 
	C258.882507,122.992462 261.137024,119.164131 263.695007,115.182106 
	C263.017914,118.681458 262.200989,122.393921 260.914673,125.935944 
	C260.666199,126.620132 258.581543,126.637489 256.985962,126.891617 
z"/>
<path fill="#231C06" opacity="1.000000" stroke="none" 
	d="
M285.192657,330.165375 
	C286.390442,329.102325 287.582214,328.021057 289.012756,326.760468 
	C287.820038,331.154358 286.342743,335.690948 280.528839,337.048615 
	C280.837402,335.982208 281.504639,334.916382 282.149109,333.509460 
	C282.126343,333.168335 282.072296,333.208832 282.370422,333.153564 
	C282.853516,332.757874 283.038483,332.417450 283.151031,332.073303 
	C283.078644,332.069580 283.078918,332.214600 283.367859,332.144348 
	C283.841736,331.736847 284.026672,331.399567 284.157532,331.076233 
	C284.103424,331.090179 284.140686,331.195496 284.398468,331.124023 
	C284.834015,330.757172 285.011780,330.461731 285.189514,330.166321 
	C285.189514,330.166321 285.186646,330.147186 285.192657,330.165375 
z"/>
<path fill="#231C06" opacity="1.000000" stroke="none" 
	d="
M269.922272,224.437714 
	C269.860199,223.906418 269.899078,223.718338 270.030273,223.257477 
	C275.294403,223.949707 275.088684,228.915894 277.027679,232.616516 
	C276.602142,232.899292 276.186676,232.844391 275.458069,232.765778 
	C273.437683,230.088364 271.730469,227.434647 269.922272,224.437714 
z"/>
<path fill="#231C06" opacity="1.000000" stroke="none" 
	d="
M291.719788,250.120499 
	C292.962524,252.523010 293.970032,254.897446 295.028198,257.635773 
	C295.361755,258.810577 295.644623,259.621490 295.926331,260.754913 
	C293.436401,257.574982 290.947662,254.072540 288.384949,250.245178 
	C288.686279,249.933914 289.061584,249.947571 289.971832,249.992920 
	C290.675812,250.029037 290.844879,250.033493 291.013947,250.037949 
	C291.013947,250.037949 291.484589,250.092422 291.719788,250.120499 
z"/>
<path fill="#171007" opacity="1.000000" stroke="none" 
	d="
M311.747864,284.050049 
	C309.916504,282.039185 308.405579,279.909576 306.826904,277.444885 
	C308.811493,278.142944 310.986786,278.991333 312.885712,280.254974 
	C315.376617,281.912598 313.986694,283.063202 311.747864,284.050049 
z"/>
<path fill="#06030B" opacity="1.000000" stroke="none" 
	d="
M258.994232,200.538483 
	C262.706879,200.741638 265.864044,201.397659 264.055389,207.897202 
	C261.827454,204.895004 260.281647,202.811996 258.994232,200.538483 
z"/>
<path fill="#06030B" opacity="1.000000" stroke="none" 
	d="
M140.036743,40.953514 
	C139.896088,42.526646 139.493423,43.911610 138.998840,45.650505 
	C137.874405,46.432812 136.841888,46.861187 134.316803,47.908813 
	C135.427750,44.639668 136.061905,42.461887 136.995270,40.420952 
	C137.112106,40.165478 138.809616,40.632885 140.036743,40.953514 
z"/>
<path fill="#171007" opacity="1.000000" stroke="none" 
	d="
M79.026611,251.145538 
	C77.786629,253.445206 76.160904,255.746918 74.270920,258.188782 
	C71.191536,257.513123 70.032593,256.240997 73.089241,254.213104 
	C74.844955,253.048340 76.784225,252.160233 79.026611,251.145538 
z"/>
<path fill="#231C06" opacity="1.000000" stroke="none" 
	d="
M250.142914,137.958008 
	C251.732315,134.709122 253.604965,131.542419 255.707932,128.127533 
	C254.925232,131.310898 253.953110,134.756378 252.801407,138.140747 
	C252.729446,138.352173 251.250504,138.084808 250.142914,137.958008 
z"/>
<path fill="#171007" opacity="1.000000" stroke="none" 
	d="
M192.124512,259.054352 
	C193.835403,261.462067 195.498550,264.302612 197.195160,267.497620 
	C191.147675,267.751312 192.394699,263.137329 192.124512,259.054352 
z"/>
<path fill="#231C06" opacity="1.000000" stroke="none" 
	d="
M298.014557,318.692627 
	C297.782257,318.325256 297.907532,317.997498 298.103394,317.412903 
	C300.551422,314.799744 302.928894,312.443481 305.607971,309.934631 
	C305.922211,310.552124 305.934845,311.322144 305.937317,312.472992 
	C303.408813,314.813263 300.890472,316.772736 298.014557,318.692627 
z"/>
<path fill="#3B3006" opacity="1.000000" stroke="none" 
	d="
M232.728500,30.830622 
	C227.979462,31.370680 222.925018,31.679676 217.408493,31.893024 
	C222.105301,31.398104 227.264206,30.998833 232.728500,30.830622 
z"/>
<path fill="#231C06" opacity="1.000000" stroke="none" 
	d="
M291.804138,325.249878 
	C292.257355,324.173431 292.829590,323.452423 293.630585,322.679016 
	C294.201691,324.325439 294.544037,326.024353 294.886383,327.723236 
	C293.898651,327.017273 292.910889,326.311310 291.804138,325.249878 
z"/>
<path fill="#3B3006" opacity="1.000000" stroke="none" 
	d="
M264.928040,92.823730 
	C263.843201,88.792618 262.846558,84.320923 261.908813,79.432739 
	C262.983856,83.471893 264.000031,87.927528 264.928040,92.823730 
z"/>
<path fill="#3B3006" opacity="1.000000" stroke="none" 
	d="
M166.757095,33.929501 
	C162.987640,34.447174 158.927933,34.729637 154.410950,34.933945 
	C158.124725,34.468628 162.295792,34.081459 166.757095,33.929501 
z"/>
<path fill="#3B3006" opacity="1.000000" stroke="none" 
	d="
M184.871155,33.110275 
	C180.531998,33.549713 175.715302,33.866543 170.445557,34.066620 
	C174.792862,33.629131 179.593231,33.308395 184.871155,33.110275 
z"/>
<path fill="#3B3006" opacity="1.000000" stroke="none" 
	d="
M248.798691,30.031752 
	C245.326462,30.549509 241.592087,30.829882 237.410156,31.004265 
	C240.820587,30.530304 244.678558,30.162334 248.798691,30.031752 
z"/>
<path fill="#231C06" opacity="1.000000" stroke="none" 
	d="
M219.871506,306.690674 
	C220.156662,307.811249 220.348694,308.625916 220.590179,309.761047 
	C219.558746,308.249237 218.477859,306.416992 217.573654,304.328949 
	C218.426361,304.843719 219.102371,305.614227 219.871506,306.690674 
z"/>
<path fill="#231C06" opacity="1.000000" stroke="none" 
	d="
M281.912109,239.880585 
	C280.574310,238.421173 279.255676,236.622574 277.871307,234.492798 
	C282.377502,233.503342 281.323639,237.159485 281.912109,239.880585 
z"/>
<path fill="#0B0807" opacity="1.000000" stroke="none" 
	d="
M86.010857,240.564697 
	C85.726166,241.087540 85.436584,241.293945 85.052963,241.753326 
	C83.158417,239.961044 83.158417,239.961044 85.683395,237.832214 
	C85.806496,238.754242 85.906235,239.501251 86.010857,240.564697 
z"/>
<path fill="#D8C94A" opacity="1.000000" stroke="none" 
	d="
M64.712280,270.871704 
	C65.742958,270.145721 66.512505,269.541779 67.571609,268.838257 
	C67.139946,270.096252 66.418732,271.453766 65.345306,272.886047 
	C64.796806,272.694031 64.571350,272.454773 64.113174,272.102203 
	C64.090118,271.638824 64.270630,271.316254 64.712280,270.871704 
z"/>
<path fill="#06030B" opacity="1.000000" stroke="none" 
	d="
M43.995468,290.994629 
	C45.529636,287.956848 46.948666,288.996033 48.502945,291.488220 
	C48.670551,291.858765 48.657394,291.880524 48.213760,291.681732 
	C46.518154,291.326019 45.266174,291.169128 44.014198,291.012207 
	C44.014198,291.012207 44.001984,291.001495 43.995468,290.994629 
z"/>
<path fill="#06030B" opacity="1.000000" stroke="none" 
	d="
M37.005501,305.006317 
	C36.109879,305.632965 35.208424,306.252930 34.306965,306.872925 
	C34.127567,306.462677 33.948166,306.052460 33.768768,305.642212 
	C34.617149,305.428650 35.465530,305.215088 36.650452,304.994049 
	C36.986996,304.986572 36.999668,304.999664 37.005501,305.006317 
z"/>
<path fill="#3B3006" opacity="1.000000" stroke="none" 
	d="
M267.786713,108.966766 
	C267.379486,107.974251 267.213593,106.880981 267.097198,105.373917 
	C267.440491,106.262085 267.734283,107.564041 267.786713,108.966766 
z"/>
<path fill="#231C06" opacity="1.000000" stroke="none" 
	d="
M248.273026,140.875671 
	C248.395157,140.025223 248.852432,139.095032 249.588974,138.016663 
	C249.448227,138.844284 249.028198,139.820114 248.273026,140.875671 
z"/>
<path fill="#231C06" opacity="1.000000" stroke="none" 
	d="
M245.053024,145.781631 
	C245.219131,144.897202 245.750839,143.954391 246.552063,142.826630 
	C246.353928,143.668884 245.886276,144.696060 245.053024,145.781631 
z"/>
<path fill="#231C06" opacity="1.000000" stroke="none" 
	d="
M264.351715,114.922272 
	C264.106354,114.622154 264.187073,114.248779 264.316101,113.590057 
	C264.750519,112.952103 265.136627,112.599487 265.750671,112.114075 
	C265.545044,112.937195 265.111450,113.893112 264.351715,114.922272 
z"/>
<path fill="#3B3006" opacity="1.000000" stroke="none" 
	d="
M262.049316,78.672470 
	C261.640900,77.907585 261.311462,76.785484 261.043396,75.308273 
	C261.445923,76.073853 261.787079,77.194557 262.049316,78.672470 
z"/>
<path fill="#171007" opacity="1.000000" stroke="none" 
	d="
M65.748245,257.677673 
	C66.053261,257.738037 66.236923,257.911346 66.420586,258.084656 
	C66.316406,258.181244 66.212219,258.277832 66.108040,258.374420 
	C65.947662,258.179840 65.787285,257.985229 65.748245,257.677673 
z"/>
<path fill="#3B3006" opacity="1.000000" stroke="none" 
	d="
M266.984802,102.826553 
	C266.624603,102.316284 266.352173,101.467209 266.149902,100.282791 
	C266.504242,100.794205 266.788422,101.640976 266.984802,102.826553 
z"/>
<path fill="#231C06" opacity="1.000000" stroke="none" 
	d="
M278.599182,338.986511 
	C278.621613,338.604706 278.931061,338.151093 279.502258,337.590088 
	C279.471405,337.960022 279.178772,338.437378 278.599182,338.986511 
z"/>
<path fill="#171007" opacity="1.000000" stroke="none" 
	d="
M314.591553,300.957092 
	C314.634308,300.592560 314.963745,300.146576 315.547302,299.573059 
	C315.493713,299.922211 315.185944,300.398956 314.591553,300.957092 
z"/>
<path fill="#3B3006" opacity="1.000000" stroke="none" 
	d="
M197.881638,32.531075 
	C197.591248,32.812389 197.118423,32.921497 196.289581,32.930695 
	C196.522110,32.673477 197.110657,32.516174 197.881638,32.531075 
z"/>
<path fill="#231C06" opacity="1.000000" stroke="none" 
	d="
M301.880524,266.427917 
	C301.933563,266.371796 302.113800,266.573151 302.113800,266.573151 
	C302.113800,266.573151 301.827484,266.484009 301.880524,266.427917 
z"/>
<path fill="#231C06" opacity="1.000000" stroke="none" 
	d="
M297.910248,263.889221 
	C297.691681,263.921295 297.445618,263.709839 297.195648,263.240997 
	C297.520447,263.101624 297.750793,263.322296 297.910248,263.889221 
z"/>
<path fill="#06030B" opacity="1.000000" stroke="none" 
	d="
M290.910461,249.913361 
	C290.844879,250.033493 290.675812,250.029037 290.253357,250.012299 
	C290.220062,249.682632 290.489044,249.612228 290.910461,249.913361 
z"/>
<path fill="#171007" opacity="1.000000" stroke="none" 
	d="
M80.605728,249.155579 
	C80.698502,249.327255 80.606651,249.656906 80.261658,250.083618 
	C80.051476,249.846619 80.189003,249.557602 80.605728,249.155579 
z"/>
<path fill="#3B3006" opacity="1.000000" stroke="none" 
	d="
M200.947601,32.439831 
	C200.872314,32.665031 200.688324,32.740646 200.220215,32.724049 
	C200.237030,32.517971 200.537949,32.404110 200.947601,32.439831 
z"/>
<path fill="#231C06" opacity="1.000000" stroke="none" 
	d="
M296.778656,262.086121 
	C296.550079,262.118469 296.266418,261.872955 295.946289,261.339600 
	C296.181030,261.303925 296.452332,261.556091 296.778656,262.086121 
z"/>
<path fill="#231C06" opacity="1.000000" stroke="none" 
	d="
M289.955688,326.319153 
	C289.927460,326.044891 290.194794,325.884125 290.730682,325.740784 
	C290.713409,325.922363 290.464081,326.147156 289.955688,326.319153 
z"/>
<path fill="#3B3006" opacity="1.000000" stroke="none" 
	d="
M265.323792,94.906380 
	C265.110138,94.870216 265.013000,94.708733 264.955292,94.267181 
	C265.143280,94.251762 265.291779,94.516411 265.323792,94.906380 
z"/>
<path fill="#3B3006" opacity="1.000000" stroke="none" 
	d="
M266.097961,98.812424 
	C265.740479,98.878113 265.609497,98.680962 265.744141,98.224075 
	C266.081940,98.196686 266.186829,98.391769 266.097961,98.812424 
z"/>
<path fill="#231C06" opacity="1.000000" stroke="none" 
	d="
M296.875549,319.700195 
	C296.795105,319.481079 296.983093,319.166412 297.429504,318.743835 
	C297.506622,318.958832 297.325317,319.281708 296.875549,319.700195 
z"/>
<path fill="#171007" opacity="1.000000" stroke="none" 
	d="
M312.832550,285.965424 
	C312.631500,285.991241 312.358246,285.766418 312.053406,285.268921 
	C312.268005,285.235779 312.514160,285.475281 312.832550,285.965424 
z"/>
<path fill="#231C06" opacity="1.000000" stroke="none" 
	d="
M303.507019,264.508362 
	C303.489594,264.514923 303.524414,264.501801 303.507019,264.508362 
z"/>
<path fill="#231C06" opacity="1.000000" stroke="none" 
	d="
M299.906311,266.874390 
	C299.689240,266.907990 299.429779,266.694733 299.160248,266.220062 
	C299.388062,266.181610 299.626007,266.404602 299.906311,266.874390 
z"/>
<path fill="#1B1407" opacity="1.000000" stroke="none" 
	d="
M122.146317,132.006470 
	C122.338600,132.005508 122.553146,132.243210 122.761078,132.731552 
	C122.465904,132.810623 122.270607,132.564941 122.146317,132.006470 
z"/>
<path fill="#231C06" opacity="1.000000" stroke="none" 
	d="
M283.844940,242.980652 
	C283.624298,243.006332 283.357025,242.770187 283.073364,242.258163 
	C283.304077,242.227798 283.551178,242.473312 283.844940,242.980652 
z"/>
<path fill="#171007" opacity="1.000000" stroke="none" 
	d="
M318.996704,301.002380 
	C318.993378,301.004791 319.280670,301.168365 319.280670,301.168365 
	C319.280670,301.168365 319.082123,301.152252 319.043396,301.072876 
	C319.004639,300.993500 319.000000,301.000000 318.996704,301.002380 
z"/>
<path fill="#231C06" opacity="1.000000" stroke="none" 
	d="
M277.799072,233.948044 
	C277.586090,233.975510 277.330963,233.750702 277.059753,233.259216 
	C277.281433,233.226944 277.519165,233.461365 277.799072,233.948044 
z"/>
<path fill="#1B1407" opacity="1.000000" stroke="none" 
	d="
M127.089981,141.148178 
	C127.396309,140.987869 127.627975,141.187256 127.754364,141.761627 
	C127.474503,141.872025 127.263245,141.662445 127.089981,141.148178 
z"/>
<path fill="#231C06" opacity="1.000000" stroke="none" 
	d="
M247.389954,141.899780 
	C247.096786,141.651321 247.200485,141.353745 247.723923,141.028046 
	C247.963531,141.271332 247.844589,141.554916 247.389954,141.899780 
z"/>
<path fill="#120D06" opacity="1.000000" stroke="none" 
	d="
M200.116028,98.043365 
	C197.469254,100.867798 194.822464,103.692230 191.514328,107.222397 
	C185.665756,98.145393 179.853210,89.124298 173.321533,78.987122 
	C187.369751,78.572327 200.484375,78.185104 213.710449,78.287582 
	C210.761734,82.812622 207.635895,86.800453 204.667160,90.901993 
	C203.014969,93.184631 201.624466,95.656670 200.116028,98.043365 
z"/>
<path fill="#FADE27" opacity="1.000000" stroke="none" 
	d="
M82.082993,252.024353 
	C85.349365,247.028397 88.901970,242.195908 92.695099,237.123764 
	C93.329002,239.350433 93.722374,241.816772 93.765686,244.807129 
	C90.617149,248.228104 87.818672,251.125046 85.020203,254.021973 
	C84.136536,253.410583 83.252869,252.799194 82.082993,252.024353 
z"/>
<path fill="#E6D861" opacity="1.000000" stroke="none" 
	d="
M200.452347,97.982079 
	C201.624466,95.656670 203.014969,93.184631 204.667160,90.901993 
	C207.635895,86.800453 210.761734,82.812622 214.049500,78.549774 
	C214.681244,78.982880 215.587463,80.021111 215.416168,80.248856 
	C211.180923,85.879524 206.846344,91.436043 202.476166,96.963631 
	C202.104599,97.433632 201.359985,97.608711 200.452347,97.982079 
z"/>
<path fill="#F7E311" opacity="1.000000" stroke="none" 
	d="
M85.037560,254.366638 
	C87.818672,251.125046 90.617149,248.228104 93.704208,245.159088 
	C95.234482,248.709717 90.471634,256.485474 86.738983,256.596283 
	C86.196762,256.612396 85.617203,255.370880 85.037560,254.366638 
z"/>
<path fill="#F7E311" opacity="1.000000" stroke="none" 
	d="
M233.958710,149.988083 
	C231.270782,152.021957 228.582870,154.055817 225.985901,156.020874 
	C225.770676,150.972061 229.212418,146.103058 233.760635,146.191925 
	C233.987930,147.864777 233.973312,148.926437 233.958710,149.988083 
z"/>
<path fill="#FADE27" opacity="1.000000" stroke="none" 
	d="
M240.647095,184.989014 
	C241.648712,185.795715 242.227982,186.606140 242.935989,187.691620 
	C241.372223,188.481018 239.688248,189.026062 237.984467,189.499878 
	C236.650055,189.871017 235.298752,190.224121 233.931824,190.373108 
	C233.786606,190.388931 233.063400,188.699219 233.338211,188.285248 
	C234.107132,187.126907 235.100937,185.894379 236.305969,185.314743 
	C237.408707,184.784302 238.903015,185.067902 240.647095,184.989014 
z"/>
<path fill="#F7E311" opacity="1.000000" stroke="none" 
	d="
M282.154266,333.187317 
	C280.704559,333.793396 279.226898,334.380493 277.405487,335.016296 
	C277.867371,332.721527 278.264069,330.110199 279.580139,328.101074 
	C281.302216,325.472137 283.022064,326.233093 283.927673,329.806213 
	C284.053894,330.722382 284.097290,330.958923 284.140686,331.195496 
	C284.140686,331.195496 284.103424,331.090179 283.895569,331.186890 
	C283.484741,331.593933 283.281830,331.904266 283.078918,332.214600 
	C283.078918,332.214600 283.078644,332.069580 282.886353,332.177734 
	C282.486816,332.593567 282.279572,332.901215 282.072296,333.208832 
	C282.072296,333.208832 282.126343,333.168335 282.154266,333.187317 
z"/>
<path fill="#FADE27" opacity="1.000000" stroke="none" 
	d="
M234.309921,150.046539 
	C233.973312,148.926437 233.987930,147.864777 234.009460,146.404968 
	C237.160599,144.074203 238.539490,145.983902 239.842850,148.828812 
	C239.584747,149.641708 239.089264,150.200500 238.348282,150.897736 
	C236.955566,150.725784 235.808350,150.415390 234.309921,150.046539 
z"/>
<path fill="#FADE27" opacity="1.000000" stroke="none" 
	d="
M234.025391,174.967209 
	C232.841721,175.760437 230.735260,177.441849 230.559296,177.259583 
	C229.114807,175.763321 228.029434,173.920380 226.835083,172.182663 
	C227.252182,171.843338 227.669281,171.504013 228.086365,171.164703 
	C229.844070,172.395584 231.601761,173.626480 233.707855,174.908051 
	C234.056259,174.958740 233.997299,174.991669 234.025391,174.967209 
z"/>
<path fill="#F7E311" opacity="1.000000" stroke="none" 
	d="
M276.697693,335.059937 
	C275.964294,336.680328 274.862305,338.299988 273.441406,340.026062 
	C270.934265,336.382660 273.640900,335.726746 276.697693,335.059937 
z"/>
<path fill="#FADE27" opacity="1.000000" stroke="none" 
	d="
M235.802094,177.222641 
	C236.593750,177.797302 237.179977,178.615845 237.894592,179.712433 
	C237.214233,179.149139 236.405457,178.307831 235.802094,177.222641 
z"/>
<path fill="#D8C94A" opacity="1.000000" stroke="none" 
	d="
M63.183723,277.555359 
	C63.135624,277.258362 63.294533,276.837646 63.605633,276.250732 
	C63.635460,276.533539 63.513096,276.982605 63.183723,277.555359 
z"/>
<path fill="#DBCE4E" opacity="1.000000" stroke="none" 
	d="
M284.398468,331.124023 
	C284.097290,330.958923 284.053894,330.722382 283.992310,330.123047 
	C284.177521,329.825256 284.380951,329.890320 284.886963,330.060852 
	C285.011780,330.461731 284.834015,330.757172 284.398468,331.124023 
z"/>
<path fill="#000000" opacity="1.000000" stroke="none" 
	d="
M44.126572,291.349426 
	C45.266174,291.169128 46.518154,291.326019 48.201920,291.687256 
	C48.353943,292.284088 48.074181,292.676666 47.551659,293.108307 
	C46.285580,292.660461 45.262264,292.173523 44.126572,291.349426 
z"/>
<path fill="#000000" opacity="1.000000" stroke="none" 
	d="
M44.391800,297.243073 
	C44.349842,297.044006 44.602531,296.726624 45.116302,296.248474 
	C45.147072,296.433350 44.916759,296.779053 44.391800,297.243073 
z"/>
<path fill="#DBCE4E" opacity="1.000000" stroke="none" 
	d="
M282.370422,333.153564 
	C282.279572,332.901215 282.486816,332.593567 282.958740,332.181488 
	C283.038483,332.417450 282.853516,332.757874 282.370422,333.153564 
z"/>
<path fill="#DBCE4E" opacity="1.000000" stroke="none" 
	d="
M283.367859,332.144348 
	C283.281830,331.904266 283.484741,331.593933 283.949646,331.172974 
	C284.026672,331.399567 283.841736,331.736847 283.367859,332.144348 
z"/>
</svg>